<svg width="64" height="64" viewBox="0 0 256 256" fill="none" xmlns="http://www.w3.org/2000/svg">
  <defs>
    <linearGradient id="favGradient" x1="48" y1="40" x2="208" y2="216" gradientUnits="userSpaceOnUse">
      <stop stop-color="#5B5FFF"/>
      <stop offset="1" stop-color="#7C4DFF"/>
    </linearGradient>
  </defs>
  <rect x="54" y="44" width="108" height="136" rx="28" fill="#E6F0FF"/>
  <rect x="94" y="56" width="108" height="136" rx="28" fill="url(#favGradient)"/>
  <path d="M118 92C118 83.1634 125.163 76 134 76H164C172.837 76 180 83.1634 180 92V124C180 132.837 172.837 140 164 140H150L134 156V140C125.163 140 118 132.837 118 124V92Z" fill="white"/>
  <rect x="132" y="92" width="34" height="10" rx="5" fill="url(#favGradient)"/>
  <rect x="132" y="110" width="24" height="10" rx="5" fill="#C7D2FE"/>
  <path d="M82 146L108 120" stroke="url(#favGradient)" stroke-width="14" stroke-linecap="round"/>
  <path d="M82 146H106C116.493 146 125 154.507 125 165V184" stroke="url(#favGradient)" stroke-width="14" stroke-linecap="round" stroke-linejoin="round"/>
</svg>
